<mxfile host="app.diagrams.net" modified="2023-04-27T01:12:13.657Z" agent="Mozilla/5.0 (Windows NT 10.0; Win64; x64) AppleWebKit/537.36 (KHTML, like Gecko) Chrome/112.0.0.0 Safari/537.36 Edg/112.0.1722.58" etag="9bNVFevMRc0B2fn_7iGu" version="21.1.5" type="github">
  <diagram name="第 1 页" id="gkmG7VhInbEr2ceo7PEO">
    <mxGraphModel dx="1002" dy="573" grid="1" gridSize="10" guides="1" tooltips="1" connect="1" arrows="1" fold="1" page="1" pageScale="1" pageWidth="827" pageHeight="1169" math="0" shadow="0">
      <root>
        <mxCell id="0" />
        <mxCell id="1" parent="0" />
        <mxCell id="cOr0uvuOLXsDWpgKQ7CC-1" value="&lt;font style=&quot;font-size: 17px;&quot;&gt;X=0.1011&lt;/font&gt;" style="text;html=1;strokeColor=none;fillColor=none;align=center;verticalAlign=middle;whiteSpace=wrap;rounded=0;" vertex="1" parent="1">
          <mxGeometry x="190" y="100" width="70" height="50" as="geometry" />
        </mxCell>
        <mxCell id="cOr0uvuOLXsDWpgKQ7CC-2" value="&lt;font style=&quot;font-size: 18px;&quot;&gt;Y=0.1101&lt;/font&gt;" style="text;html=1;strokeColor=none;fillColor=none;align=center;verticalAlign=middle;whiteSpace=wrap;rounded=0;" vertex="1" parent="1">
          <mxGeometry x="300" y="100" width="76" height="50" as="geometry" />
        </mxCell>
        <mxCell id="cOr0uvuOLXsDWpgKQ7CC-3" value="&lt;font style=&quot;font-size: 18px;&quot;&gt;x / y&lt;/font&gt;" style="text;html=1;strokeColor=none;fillColor=none;align=center;verticalAlign=middle;whiteSpace=wrap;rounded=0;" vertex="1" parent="1">
          <mxGeometry x="240" y="160" width="60" height="30" as="geometry" />
        </mxCell>
        <mxCell id="cOr0uvuOLXsDWpgKQ7CC-4" value="" style="endArrow=classic;html=1;rounded=0;fillColor=#dae8fc;strokeColor=#ffffff;" edge="1" parent="1">
          <mxGeometry width="50" height="50" relative="1" as="geometry">
            <mxPoint x="200" y="200" as="sourcePoint" />
            <mxPoint x="250" y="180" as="targetPoint" />
          </mxGeometry>
        </mxCell>
        <mxCell id="cOr0uvuOLXsDWpgKQ7CC-5" value="" style="endArrow=classic;html=1;rounded=0;entryX=0.833;entryY=0.667;entryDx=0;entryDy=0;entryPerimeter=0;fillColor=#dae8fc;strokeColor=#6c8ebf;" edge="1" parent="1" target="cOr0uvuOLXsDWpgKQ7CC-3">
          <mxGeometry width="50" height="50" relative="1" as="geometry">
            <mxPoint x="340" y="210" as="sourcePoint" />
            <mxPoint x="440" y="260" as="targetPoint" />
          </mxGeometry>
        </mxCell>
        <mxCell id="cOr0uvuOLXsDWpgKQ7CC-6" value="&lt;font color=&quot;#6c8ebf&quot; style=&quot;font-size: 15px;&quot;&gt;除数&lt;/font&gt;" style="text;html=1;strokeColor=none;fillColor=none;align=center;verticalAlign=middle;whiteSpace=wrap;rounded=0;" vertex="1" parent="1">
          <mxGeometry x="316" y="200" width="60" height="30" as="geometry" />
        </mxCell>
        <mxCell id="cOr0uvuOLXsDWpgKQ7CC-7" value="" style="endArrow=classic;html=1;rounded=0;fillColor=#dae8fc;strokeColor=#6c8ebf;" edge="1" parent="1" source="cOr0uvuOLXsDWpgKQ7CC-10" target="cOr0uvuOLXsDWpgKQ7CC-3">
          <mxGeometry width="50" height="50" relative="1" as="geometry">
            <mxPoint x="190" y="240" as="sourcePoint" />
            <mxPoint x="260" y="220" as="targetPoint" />
            <Array as="points" />
          </mxGeometry>
        </mxCell>
        <mxCell id="cOr0uvuOLXsDWpgKQ7CC-10" value="&lt;font color=&quot;#6c8ebf&quot; style=&quot;font-size: 14px;&quot;&gt;被除数&lt;/font&gt;" style="text;html=1;strokeColor=none;fillColor=none;align=center;verticalAlign=middle;whiteSpace=wrap;rounded=0;" vertex="1" parent="1">
          <mxGeometry x="140" y="200" width="60" height="30" as="geometry" />
        </mxCell>
        <mxCell id="cOr0uvuOLXsDWpgKQ7CC-14" value="&lt;font style=&quot;font-size: 17px;&quot;&gt;1&lt;/font&gt;" style="ellipse;whiteSpace=wrap;html=1;aspect=fixed;fillColor=#f8cecc;strokeColor=#b85450;" vertex="1" parent="1">
          <mxGeometry x="140" y="260" width="20" height="20" as="geometry" />
        </mxCell>
        <mxCell id="cOr0uvuOLXsDWpgKQ7CC-16" value="&lt;font style=&quot;font-size: 17px;&quot;&gt;2&lt;/font&gt;" style="ellipse;whiteSpace=wrap;html=1;aspect=fixed;fillColor=#f8cecc;strokeColor=#b85450;" vertex="1" parent="1">
          <mxGeometry x="140" y="380" width="20" height="20" as="geometry" />
        </mxCell>
        <mxCell id="cOr0uvuOLXsDWpgKQ7CC-17" value="&lt;font style=&quot;font-size: 17px;&quot;&gt;3&lt;/font&gt;" style="ellipse;whiteSpace=wrap;html=1;aspect=fixed;fillColor=#f8cecc;strokeColor=#b85450;" vertex="1" parent="1">
          <mxGeometry x="140" y="510" width="20" height="20" as="geometry" />
        </mxCell>
        <mxCell id="cOr0uvuOLXsDWpgKQ7CC-22" value="&lt;font style=&quot;font-size: 15px;&quot;&gt;先减法&lt;/font&gt;" style="text;html=1;strokeColor=none;fillColor=none;align=center;verticalAlign=middle;whiteSpace=wrap;rounded=0;" vertex="1" parent="1">
          <mxGeometry x="180" y="255" width="60" height="30" as="geometry" />
        </mxCell>
        <mxCell id="cOr0uvuOLXsDWpgKQ7CC-23" value="&lt;font color=&quot;#ff3333&quot; style=&quot;font-size: 20px;&quot;&gt;x - |y| = r&lt;/font&gt;" style="text;html=1;strokeColor=none;fillColor=none;align=center;verticalAlign=middle;whiteSpace=wrap;rounded=0;" vertex="1" parent="1">
          <mxGeometry x="354" y="255" width="120" height="30" as="geometry" />
        </mxCell>
        <mxCell id="cOr0uvuOLXsDWpgKQ7CC-24" value="&lt;font style=&quot;font-size: 14px;&quot;&gt;被除数 &amp;gt; 除数的绝对值&lt;/font&gt;" style="text;html=1;strokeColor=none;fillColor=none;align=center;verticalAlign=middle;whiteSpace=wrap;rounded=0;" vertex="1" parent="1">
          <mxGeometry x="270" y="300" width="210" height="30" as="geometry" />
        </mxCell>
        <mxCell id="cOr0uvuOLXsDWpgKQ7CC-25" value="" style="endArrow=classic;html=1;rounded=0;entryX=0.162;entryY=-0.02;entryDx=0;entryDy=0;entryPerimeter=0;exitX=1;exitY=0.75;exitDx=0;exitDy=0;" edge="1" parent="1" source="cOr0uvuOLXsDWpgKQ7CC-22" target="cOr0uvuOLXsDWpgKQ7CC-24">
          <mxGeometry width="50" height="50" relative="1" as="geometry">
            <mxPoint x="390" y="280" as="sourcePoint" />
            <mxPoint x="440" y="230" as="targetPoint" />
          </mxGeometry>
        </mxCell>
        <mxCell id="cOr0uvuOLXsDWpgKQ7CC-26" value="condition" style="text;html=1;strokeColor=none;fillColor=none;align=center;verticalAlign=middle;whiteSpace=wrap;rounded=0;" vertex="1" parent="1">
          <mxGeometry x="240" y="270" width="60" height="30" as="geometry" />
        </mxCell>
        <mxCell id="cOr0uvuOLXsDWpgKQ7CC-27" value="&lt;p style=&quot;line-height: 150%;&quot;&gt;&lt;font style=&quot;font-size: 22px;&quot;&gt;if&lt;/font&gt;&lt;font color=&quot;#ff3333&quot; style=&quot;font-size: 17px;&quot;&gt; r &amp;lt; 0&amp;nbsp; &amp;nbsp;商 0&lt;/font&gt;&lt;br&gt;&lt;/p&gt;" style="text;html=1;strokeColor=none;fillColor=none;align=center;verticalAlign=middle;whiteSpace=wrap;rounded=0;" vertex="1" parent="1">
          <mxGeometry x="150" y="370" width="170" height="30" as="geometry" />
        </mxCell>
        <mxCell id="cOr0uvuOLXsDWpgKQ7CC-28" value="&lt;font style=&quot;font-size: 21px;&quot;&gt;else&lt;/font&gt;&lt;font color=&quot;#ff3333&quot; style=&quot;font-size: 16px;&quot;&gt; r &amp;gt; 0&amp;nbsp; 商 1&lt;/font&gt;" style="text;html=1;strokeColor=none;fillColor=none;align=center;verticalAlign=middle;whiteSpace=wrap;rounded=0;" vertex="1" parent="1">
          <mxGeometry x="130" y="410" width="210" height="30" as="geometry" />
        </mxCell>
        <mxCell id="cOr0uvuOLXsDWpgKQ7CC-31" value="&lt;font style=&quot;font-size: 15px;&quot;&gt;左移一位&lt;/font&gt;" style="text;html=1;strokeColor=none;fillColor=none;align=center;verticalAlign=middle;whiteSpace=wrap;rounded=0;" vertex="1" parent="1">
          <mxGeometry x="170" y="505" width="80" height="30" as="geometry" />
        </mxCell>
        <mxCell id="cOr0uvuOLXsDWpgKQ7CC-34" value="" style="strokeWidth=1;html=1;shape=mxgraph.flowchart.annotation_2;align=left;labelPosition=right;pointerEvents=1;" vertex="1" parent="1">
          <mxGeometry x="290" y="485" width="50" height="70" as="geometry" />
        </mxCell>
        <mxCell id="cOr0uvuOLXsDWpgKQ7CC-35" value="" style="endArrow=classic;html=1;rounded=0;dashed=1;fillColor=#d5e8d4;strokeColor=#82b366;" edge="1" parent="1">
          <mxGeometry width="50" height="50" relative="1" as="geometry">
            <mxPoint x="230" y="450" as="sourcePoint" />
            <mxPoint x="280" y="520" as="targetPoint" />
          </mxGeometry>
        </mxCell>
        <mxCell id="cOr0uvuOLXsDWpgKQ7CC-36" value="r &amp;lt; 0" style="text;html=1;strokeColor=none;fillColor=none;align=center;verticalAlign=middle;whiteSpace=wrap;rounded=0;" vertex="1" parent="1">
          <mxGeometry x="300" y="460" width="60" height="30" as="geometry" />
        </mxCell>
        <mxCell id="cOr0uvuOLXsDWpgKQ7CC-37" value="r &amp;gt; 0" style="text;html=1;strokeColor=none;fillColor=none;align=center;verticalAlign=middle;whiteSpace=wrap;rounded=0;" vertex="1" parent="1">
          <mxGeometry x="300" y="550" width="60" height="30" as="geometry" />
        </mxCell>
        <mxCell id="cOr0uvuOLXsDWpgKQ7CC-38" value="&lt;font color=&quot;#ff6666&quot; style=&quot;font-size: 14px;&quot;&gt;+ |除数|&lt;/font&gt;" style="text;html=1;strokeColor=none;fillColor=none;align=center;verticalAlign=middle;whiteSpace=wrap;rounded=0;" vertex="1" parent="1">
          <mxGeometry x="360" y="475" width="60" height="30" as="geometry" />
        </mxCell>
        <mxCell id="cOr0uvuOLXsDWpgKQ7CC-39" value="&lt;font color=&quot;#ff6666&quot; style=&quot;font-size: 14px;&quot;&gt;- |除数|&lt;/font&gt;" style="text;html=1;strokeColor=none;fillColor=none;align=center;verticalAlign=middle;whiteSpace=wrap;rounded=0;" vertex="1" parent="1">
          <mxGeometry x="360" y="540" width="60" height="30" as="geometry" />
        </mxCell>
        <mxCell id="cOr0uvuOLXsDWpgKQ7CC-41" value="" style="curved=1;endArrow=classic;html=1;rounded=0;dashed=1;fillColor=#e1d5e7;strokeColor=#9673a6;" edge="1" parent="1">
          <mxGeometry width="50" height="50" relative="1" as="geometry">
            <mxPoint x="370" y="570" as="sourcePoint" />
            <mxPoint x="130" y="272" as="targetPoint" />
            <Array as="points">
              <mxPoint x="240" y="610" />
              <mxPoint x="30" y="570" />
              <mxPoint x="30" y="380" />
            </Array>
          </mxGeometry>
        </mxCell>
      </root>
    </mxGraphModel>
  </diagram>
</mxfile>
